<?xml version="1.0" encoding="UTF-8" standalone="no"?><!DOCTYPE svg PUBLIC "-//W3C//DTD SVG 1.1//EN" "http://www.w3.org/Graphics/SVG/1.1/DTD/svg11.dtd"><!-- Generated by graphviz version 2.40.1 (20161225.0304)
 --><!-- Title: G Pages: 1 --><svg xmlns="http://www.w3.org/2000/svg" xmlns:xlink="http://www.w3.org/1999/xlink" width="1940pt" height="1052pt" viewBox="0.00 0.00 1940.30 1052.00">
<g id="graph0" class="graph" transform="scale(1 1) rotate(0) translate(4 1048)">
<title>G</title>
<polygon fill="#ffffff" stroke="transparent" points="-4,4 -4,-1048 1936.2958,-1048 1936.2958,4 -4,4"/>
<!-- ls -->
<g id="node1" class="node">
<title>ls</title>
<polygon fill="none" stroke="#000000" points="351,-1044 324,-1026 351,-1008 378,-1026 351,-1044"/>
<text text-anchor="middle" x="351" y="-1021.8" font-family="Times,serif" font-size="14.00" fill="#000000">ls</text>
</g>
<!-- gl -->
<g id="node41" class="node">
<title>gl</title>
<polygon fill="none" stroke="#000000" points="285,-972 231,-972 231,-936 285,-936 285,-972"/>
<text text-anchor="middle" x="258" y="-949.8" font-family="Times,serif" font-size="14.00" fill="#000000">gl</text>
</g>
<!-- ls&#45;&gt;gl -->
<g id="edge1" class="edge">
<title>ls-&gt;gl</title>
<path fill="none" stroke="#000000" d="M338.4576,-1016.2898C325.9309,-1006.5916 306.1749,-991.2967 289.3749,-978.2902"/>
<polygon fill="#000000" stroke="#000000" points="291.4595,-975.4778 281.4097,-972.1236 287.1743,-981.0129 291.4595,-975.4778"/>
</g>
<!-- rz -->
<g id="node2" class="node">
<title>rz</title>
<polygon fill="none" stroke="#000000" points="370,-900 343,-882 370,-864 397,-882 370,-900"/>
<text text-anchor="middle" x="370" y="-877.8" font-family="Times,serif" font-size="14.00" fill="#000000">rz</text>
</g>
<!-- vm -->
<g id="node27" class="node">
<title>vm</title>
<polygon fill="none" stroke="#000000" points="251,-828 217.8794,-810 251,-792 284.1206,-810 251,-828"/>
<text text-anchor="middle" x="251" y="-805.8" font-family="Times,serif" font-size="14.00" fill="#000000">vm</text>
</g>
<!-- rz&#45;&gt;vm -->
<g id="edge2" class="edge">
<title>rz-&gt;vm</title>
<path fill="none" stroke="#000000" d="M355.4083,-873.1714C335.4864,-861.1178 299.5063,-839.3484 275.4333,-824.7832"/>
<polygon fill="#000000" stroke="#000000" points="277.2161,-821.7711 266.8484,-819.589 273.5924,-827.7602 277.2161,-821.7711"/>
</g>
<!-- rz&#45;&gt;gl -->
<g id="edge3" class="edge">
<title>rz-&gt;gl</title>
<path fill="none" stroke="#000000" d="M358.5094,-892.5658C343.1833,-903.6789 315.9769,-921.4022 293.6478,-934.9627"/>
<polygon fill="#000000" stroke="#000000" points="291.8284,-931.9726 285.0527,-940.1177 295.4288,-937.9757 291.8284,-931.9726"/>
</g>
<!-- broadcaster -->
<g id="node3" class="node">
<title>broadcaster</title>
<ellipse fill="none" stroke="#000000" cx="970" cy="-954" rx="55.5753" ry="18"/>
<text text-anchor="middle" x="970" y="-949.8" font-family="Times,serif" font-size="14.00" fill="#000000">broadcaster</text>
</g>
<!-- broadcaster&#45;&gt;rz -->
<g id="edge4" class="edge">
<title>broadcaster-&gt;rz</title>
<path fill="none" stroke="#000000" d="M917.8035,-947.7364C797.1781,-933.2614 501.8497,-897.822 402.9117,-885.9494"/>
<polygon fill="#000000" stroke="#000000" points="403.2427,-882.4641 392.8969,-884.7476 402.4086,-889.4142 403.2427,-882.4641"/>
</g>
<!-- fp -->
<g id="node6" class="node">
<title>fp</title>
<polygon fill="none" stroke="#000000" points="1706,-900 1679,-882 1706,-864 1733,-882 1706,-900"/>
<text text-anchor="middle" x="1706" y="-877.8" font-family="Times,serif" font-size="14.00" fill="#000000">fp</text>
</g>
<!-- broadcaster&#45;&gt;fp -->
<g id="edge5" class="edge">
<title>broadcaster-&gt;fp</title>
<path fill="none" stroke="#000000" d="M1023.2274,-948.793C1166.0385,-934.8223 1554.7749,-896.7938 1672.0554,-885.3207"/>
<polygon fill="#000000" stroke="#000000" points="1672.6182,-888.7824 1682.2299,-884.3253 1671.9366,-881.8157 1672.6182,-888.7824"/>
</g>
<!-- kv -->
<g id="node24" class="node">
<title>kv</title>
<polygon fill="none" stroke="#000000" points="1212,-900 1182.9682,-882 1212,-864 1241.0318,-882 1212,-900"/>
<text text-anchor="middle" x="1212" y="-877.8" font-family="Times,serif" font-size="14.00" fill="#000000">kv</text>
</g>
<!-- broadcaster&#45;&gt;kv -->
<g id="edge6" class="edge">
<title>broadcaster-&gt;kv</title>
<path fill="none" stroke="#000000" d="M1011.052,-941.7862C1059.6378,-927.3309 1139.3516,-903.6144 1182.3249,-890.829"/>
<polygon fill="#000000" stroke="#000000" points="1183.5806,-894.1071 1192.1672,-887.9007 1181.5843,-887.3977 1183.5806,-894.1071"/>
</g>
<!-- fd -->
<g id="node44" class="node">
<title>fd</title>
<polygon fill="none" stroke="#000000" points="748,-900 721,-882 748,-864 775,-882 748,-900"/>
<text text-anchor="middle" x="748" y="-877.8" font-family="Times,serif" font-size="14.00" fill="#000000">fd</text>
</g>
<!-- broadcaster&#45;&gt;fd -->
<g id="edge7" class="edge">
<title>broadcaster-&gt;fd</title>
<path fill="none" stroke="#000000" d="M930.5667,-941.2108C886.1885,-926.8179 815.2047,-903.7961 776.1073,-891.1159"/>
<polygon fill="#000000" stroke="#000000" points="777.0236,-887.7336 766.4315,-887.9778 774.864,-894.3922 777.0236,-887.7336"/>
</g>
<!-- ql -->
<g id="node4" class="node">
<title>ql</title>
<polygon fill="none" stroke="#000000" points="1761,-540 1734,-522 1761,-504 1788,-522 1761,-540"/>
<text text-anchor="middle" x="1761" y="-517.8" font-family="Times,serif" font-size="14.00" fill="#000000">ql</text>
</g>
<!-- bn -->
<g id="node16" class="node">
<title>bn</title>
<polygon fill="none" stroke="#000000" points="1725,-468 1695.9682,-450 1725,-432 1754.0318,-450 1725,-468"/>
<text text-anchor="middle" x="1725" y="-445.8" font-family="Times,serif" font-size="14.00" fill="#000000">bn</text>
</g>
<!-- ql&#45;&gt;bn -->
<g id="edge8" class="edge">
<title>ql-&gt;bn</title>
<path fill="none" stroke="#000000" d="M1754.2287,-508.4574C1749.264,-498.528 1742.4019,-484.8037 1736.5741,-473.1483"/>
<polygon fill="#000000" stroke="#000000" points="1739.5892,-471.3521 1731.9865,-463.973 1733.3282,-474.4826 1739.5892,-471.3521"/>
</g>
<!-- bm -->
<g id="node5" class="node">
<title>bm</title>
<polygon fill="none" stroke="#000000" points="1190,-252 1156.8794,-234 1190,-216 1223.1206,-234 1190,-252"/>
<text text-anchor="middle" x="1190" y="-229.8" font-family="Times,serif" font-size="14.00" fill="#000000">bm</text>
</g>
<!-- hr -->
<g id="node23" class="node">
<title>hr</title>
<polygon fill="none" stroke="#000000" points="1239,-756 1185,-756 1185,-720 1239,-720 1239,-756"/>
<text text-anchor="middle" x="1212" y="-733.8" font-family="Times,serif" font-size="14.00" fill="#000000">hr</text>
</g>
<!-- bm&#45;&gt;hr -->
<g id="edge9" class="edge">
<title>bm-&gt;hr</title>
<path fill="none" stroke="#000000" d="M1211.6854,-240.5153C1258.3292,-256.0184 1364,-299.773 1364,-378 1364,-594 1364,-594 1364,-594 1364,-657.4618 1293.3092,-701.3368 1248.3444,-722.8257"/>
<polygon fill="#000000" stroke="#000000" points="1246.7792,-719.6934 1239.1746,-727.0704 1249.7197,-726.0458 1246.7792,-719.6934"/>
</g>
<!-- fj -->
<g id="node46" class="node">
<title>fj</title>
<polygon fill="none" stroke="#000000" points="1130,-180 1103,-162 1130,-144 1157,-162 1130,-180"/>
<text text-anchor="middle" x="1130" y="-157.8" font-family="Times,serif" font-size="14.00" fill="#000000">fj</text>
</g>
<!-- bm&#45;&gt;fj -->
<g id="edge10" class="edge">
<title>bm-&gt;fj</title>
<path fill="none" stroke="#000000" d="M1179.5488,-221.4586C1170.4049,-210.4858 1156.9693,-194.3631 1146.3949,-181.6739"/>
<polygon fill="#000000" stroke="#000000" points="1149.0237,-179.3612 1139.933,-173.9196 1143.6461,-183.8425 1149.0237,-179.3612"/>
</g>
<!-- gk -->
<g id="node45" class="node">
<title>gk</title>
<polygon fill="none" stroke="#000000" points="1733,-756 1679,-756 1679,-720 1733,-720 1733,-756"/>
<text text-anchor="middle" x="1706" y="-733.8" font-family="Times,serif" font-size="14.00" fill="#000000">gk</text>
</g>
<!-- fp&#45;&gt;gk -->
<g id="edge12" class="edge">
<title>fp-&gt;gk</title>
<path fill="none" stroke="#000000" d="M1701.6611,-866.8616C1698.8956,-843.0662 1698.5091,-796.5212 1700.5017,-766.3677"/>
<polygon fill="#000000" stroke="#000000" points="1704.0168,-766.3245 1701.3434,-756.0726 1697.0401,-765.7541 1704.0168,-766.3245"/>
</g>
<!-- cc -->
<g id="node51" class="node">
<title>cc</title>
<polygon fill="none" stroke="#000000" points="1771,-828 1743.0327,-810 1771,-792 1798.9673,-810 1771,-828"/>
<text text-anchor="middle" x="1771" y="-805.8" font-family="Times,serif" font-size="14.00" fill="#000000">cc</text>
</g>
<!-- fp&#45;&gt;cc -->
<g id="edge11" class="edge">
<title>fp-&gt;cc</title>
<path fill="none" stroke="#000000" d="M1716.1563,-870.75C1726.2096,-859.614 1741.7916,-842.354 1753.7811,-829.0732"/>
<polygon fill="#000000" stroke="#000000" points="1756.5974,-831.1767 1760.7006,-821.4086 1751.4015,-826.4859 1756.5974,-831.1767"/>
</g>
<!-- lk -->
<g id="node7" class="node">
<title>lk</title>
<polygon fill="none" stroke="#000000" points="1446,-612 1392,-612 1392,-576 1446,-576 1446,-612"/>
<text text-anchor="middle" x="1419" y="-589.8" font-family="Times,serif" font-size="14.00" fill="#000000">lk</text>
</g>
<!-- nc -->
<g id="node38" class="node">
<title>nc</title>
<polygon fill="none" stroke="#000000" points="1013,-540 959,-540 959,-504 1013,-504 1013,-540"/>
<text text-anchor="middle" x="986" y="-517.8" font-family="Times,serif" font-size="14.00" fill="#000000">nc</text>
</g>
<!-- lk&#45;&gt;nc -->
<g id="edge13" class="edge">
<title>lk-&gt;nc</title>
<path fill="none" stroke="#000000" d="M1391.9139,-589.4961C1317.2665,-577.0836 1108.4744,-542.3653 1023.0962,-528.1684"/>
<polygon fill="#000000" stroke="#000000" points="1023.5145,-524.69 1013.0759,-526.5022 1022.3663,-531.5952 1023.5145,-524.69"/>
</g>
<!-- xg -->
<g id="node8" class="node">
<title>xg</title>
<polygon fill="none" stroke="#000000" points="230,-684 200.9682,-666 230,-648 259.0318,-666 230,-684"/>
<text text-anchor="middle" x="230" y="-661.8" font-family="Times,serif" font-size="14.00" fill="#000000">xg</text>
</g>
<!-- mz -->
<g id="node29" class="node">
<title>mz</title>
<polygon fill="none" stroke="#000000" points="290,-612 257.9105,-594 290,-576 322.0895,-594 290,-612"/>
<text text-anchor="middle" x="290" y="-589.8" font-family="Times,serif" font-size="14.00" fill="#000000">mz</text>
</g>
<!-- xg&#45;&gt;mz -->
<g id="edge15" class="edge">
<title>xg-&gt;mz</title>
<path fill="none" stroke="#000000" d="M239.9078,-654.1107C248.8634,-643.3639 262.2401,-627.3119 272.918,-614.4984"/>
<polygon fill="#000000" stroke="#000000" points="275.7584,-616.557 279.4715,-606.6341 270.3809,-612.0757 275.7584,-616.557"/>
</g>
<!-- xg&#45;&gt;gl -->
<g id="edge14" class="edge">
<title>xg-&gt;gl</title>
<path fill="none" stroke="#000000" d="M218.885,-677.2703C209.6695,-687.4656 197.2592,-703.388 192,-720 187.1708,-735.2538 190.7883,-740.0459 192,-756 196.9136,-820.6965 189.553,-840.7519 216,-900 220.4296,-909.9235 227.0583,-919.6518 233.7481,-928.0567"/>
<polygon fill="#000000" stroke="#000000" points="231.2766,-930.5569 240.3792,-935.9786 236.6444,-926.0639 231.2766,-930.5569"/>
</g>
<!-- dg -->
<g id="node9" class="node">
<title>dg</title>
<polygon fill="none" stroke="#000000" points="1666,-252 1636.9682,-234 1666,-216 1695.0318,-234 1666,-252"/>
<text text-anchor="middle" x="1666" y="-229.8" font-family="Times,serif" font-size="14.00" fill="#000000">dg</text>
</g>
<!-- mp -->
<g id="node39" class="node">
<title>mp</title>
<polygon fill="none" stroke="#000000" points="1762,-180 1728.8794,-162 1762,-144 1795.1206,-162 1762,-180"/>
<text text-anchor="middle" x="1762" y="-157.8" font-family="Times,serif" font-size="14.00" fill="#000000">mp</text>
</g>
<!-- dg&#45;&gt;mp -->
<g id="edge17" class="edge">
<title>dg-&gt;mp</title>
<path fill="none" stroke="#000000" d="M1679.3484,-223.9887C1694.9855,-212.2609 1721.1283,-192.6538 1739.826,-178.6305"/>
<polygon fill="#000000" stroke="#000000" points="1741.9284,-181.4287 1747.8284,-172.6287 1737.7284,-175.8287 1741.9284,-181.4287"/>
</g>
<!-- dg&#45;&gt;gk -->
<g id="edge16" class="edge">
<title>dg-&gt;gk</title>
<path fill="none" stroke="#000000" d="M1655.081,-245.6525C1634.4967,-268.8911 1592,-323.4708 1592,-378 1592,-594 1592,-594 1592,-594 1592,-645.4409 1637.2736,-689.2346 1670.7591,-714.5904"/>
<polygon fill="#000000" stroke="#000000" points="1668.8525,-717.5328 1678.9836,-720.633 1672.9971,-711.8916 1668.8525,-717.5328"/>
</g>
<!-- zg -->
<g id="node10" class="node">
<title>zg</title>
<polygon fill="none" stroke="#000000" points="77,-180 48.5024,-162 77,-144 105.4976,-162 77,-180"/>
<text text-anchor="middle" x="77" y="-157.8" font-family="Times,serif" font-size="14.00" fill="#000000">zg</text>
</g>
<!-- zg&#45;&gt;ls -->
<g id="edge18" class="edge">
<title>zg-&gt;ls</title>
<path fill="none" stroke="#000000" d="M100.2768,-165.4681C183.7304,-178.5458 463,-228.1269 463,-306 463,-882 463,-882 463,-882 463,-939.61 406.4548,-988.0525 373.7197,-1011.2698"/>
<polygon fill="#000000" stroke="#000000" points="371.4434,-1008.5873 365.1849,-1017.136 375.4085,-1014.3561 371.4434,-1008.5873"/>
</g>
<!-- zg&#45;&gt;gl -->
<g id="edge19" class="edge">
<title>zg-&gt;gl</title>
<path fill="none" stroke="#000000" d="M65.9678,-173.2153C44.6766,-196.1037 0,-250.7181 0,-306 0,-810 0,-810 0,-810 0,-855.5442 13.0914,-871.9849 49,-900 75.5928,-920.7471 168.1159,-939.0154 220.7077,-948.0336"/>
<polygon fill="#000000" stroke="#000000" points="220.2196,-951.5006 230.6623,-949.7119 221.3834,-944.598 220.2196,-951.5006"/>
</g>
<!-- lg -->
<g id="node11" class="node">
<title>lg</title>
<polygon fill="none" stroke="#000000" points="1095,-36 1068,-18 1095,0 1122,-18 1095,-36"/>
<text text-anchor="middle" x="1095" y="-13.8" font-family="Times,serif" font-size="14.00" fill="#000000">lg</text>
</g>
<!-- lg&#45;&gt;hr -->
<g id="edge20" class="edge">
<title>lg-&gt;hr</title>
<path fill="none" stroke="#000000" d="M1089.0627,-32.4355C1079.0771,-58.059 1060,-113.3744 1060,-162 1060,-594 1060,-594 1060,-594 1060,-639.9758 1078.0933,-651.8919 1111,-684 1129.3057,-701.8615 1154.7145,-715.4067 1175.4669,-724.4638"/>
<polygon fill="#000000" stroke="#000000" points="1174.3538,-727.7922 1184.9296,-728.4285 1177.059,-721.336 1174.3538,-727.7922"/>
</g>
<!-- pt -->
<g id="node12" class="node">
<title>pt</title>
<polygon fill="none" stroke="#000000" points="1130,-108 1103,-90 1130,-72 1157,-90 1130,-108"/>
<text text-anchor="middle" x="1130" y="-85.8" font-family="Times,serif" font-size="14.00" fill="#000000">pt</text>
</g>
<!-- pt&#45;&gt;lg -->
<g id="edge21" class="edge">
<title>pt-&gt;lg</title>
<path fill="none" stroke="#000000" d="M1123.2516,-76.1177C1118.4097,-66.1571 1111.7749,-52.5083 1106.1516,-40.9405"/>
<polygon fill="#000000" stroke="#000000" points="1109.2474,-39.3032 1101.7276,-31.8397 1102.9518,-42.3636 1109.2474,-39.3032"/>
</g>
<!-- pt&#45;&gt;hr -->
<g id="edge22" class="edge">
<title>pt-&gt;hr</title>
<path fill="none" stroke="#000000" d="M1151.0009,-94.0137C1225.6884,-108.878 1474,-163.5913 1474,-234 1474,-522 1474,-522 1474,-522 1474,-562.8816 1478.0715,-578.2507 1455,-612 1422.0248,-660.2365 1396.7566,-656.8822 1345,-684 1313.5439,-700.4814 1275.8974,-715.3462 1248.6988,-725.2874"/>
<polygon fill="#000000" stroke="#000000" points="1247.4004,-722.0349 1239.1818,-728.721 1249.7761,-728.6195 1247.4004,-722.0349"/>
</g>
<!-- sp -->
<g id="node13" class="node">
<title>sp</title>
<polygon fill="none" stroke="#000000" points="320,-468 292.0024,-450 320,-432 347.9976,-450 320,-468"/>
<text text-anchor="middle" x="320" y="-445.8" font-family="Times,serif" font-size="14.00" fill="#000000">sp</text>
</g>
<!-- mj -->
<g id="node49" class="node">
<title>mj</title>
<polygon fill="none" stroke="#000000" points="134,-396 103.9459,-378 134,-360 164.0541,-378 134,-396"/>
<text text-anchor="middle" x="134" y="-373.8" font-family="Times,serif" font-size="14.00" fill="#000000">mj</text>
</g>
<!-- sp&#45;&gt;mj -->
<g id="edge23" class="edge">
<title>sp-&gt;mj</title>
<path fill="none" stroke="#000000" d="M302.5016,-443.2264C270.2086,-430.7259 200.9973,-403.9344 162.0725,-388.8668"/>
<polygon fill="#000000" stroke="#000000" points="163,-385.4728 152.4108,-385.1268 160.473,-392.0008 163,-385.4728"/>
</g>
<!-- ms -->
<g id="node14" class="node">
<title>ms</title>
<polygon fill="none" stroke="#000000" points="98,-324 66.414,-306 98,-288 129.586,-306 98,-324"/>
<text text-anchor="middle" x="98" y="-301.8" font-family="Times,serif" font-size="14.00" fill="#000000">ms</text>
</g>
<!-- ms&#45;&gt;gl -->
<g id="edge24" class="edge">
<title>ms-&gt;gl</title>
<path fill="none" stroke="#000000" d="M93.9649,-321.8607C87.6136,-348.2586 76,-402.9605 76,-450 76,-810 76,-810 76,-810 76,-856.1966 93.2779,-869.5287 128,-900 154.6664,-923.4018 192.894,-937.6275 220.9952,-945.5587"/>
<polygon fill="#000000" stroke="#000000" points="220.2847,-948.9918 230.85,-948.2013 222.0978,-942.2306 220.2847,-948.9918"/>
</g>
<!-- hx -->
<g id="node58" class="node">
<title>hx</title>
<polygon fill="none" stroke="#000000" points="77,-252 47.9682,-234 77,-216 106.0318,-234 77,-252"/>
<text text-anchor="middle" x="77" y="-229.8" font-family="Times,serif" font-size="14.00" fill="#000000">hx</text>
</g>
<!-- ms&#45;&gt;hx -->
<g id="edge25" class="edge">
<title>ms-&gt;hx</title>
<path fill="none" stroke="#000000" d="M93.4433,-290.3771C90.8015,-281.3195 87.4113,-269.6958 84.3962,-259.3584"/>
<polygon fill="#000000" stroke="#000000" points="87.7079,-258.2124 81.5478,-249.5924 80.9879,-260.1725 87.7079,-258.2124"/>
</g>
<!-- kj -->
<g id="node15" class="node">
<title>kj</title>
<polygon fill="none" stroke="#000000" points="1762,-108 1735,-90 1762,-72 1789,-90 1762,-108"/>
<text text-anchor="middle" x="1762" y="-85.8" font-family="Times,serif" font-size="14.00" fill="#000000">kj</text>
</g>
<!-- fl -->
<g id="node18" class="node">
<title>fl</title>
<polygon fill="none" stroke="#000000" points="1658,-36 1631,-18 1658,0 1685,-18 1658,-36"/>
<text text-anchor="middle" x="1658" y="-13.8" font-family="Times,serif" font-size="14.00" fill="#000000">fl</text>
</g>
<!-- kj&#45;&gt;fl -->
<g id="edge26" class="edge">
<title>kj-&gt;fl</title>
<path fill="none" stroke="#000000" d="M1748.4038,-80.5873C1730.9457,-68.5008 1700.4389,-47.3808 1679.741,-33.0515"/>
<polygon fill="#000000" stroke="#000000" points="1681.4849,-30.0019 1671.2707,-27.1874 1677.5004,-35.7572 1681.4849,-30.0019"/>
</g>
<!-- kj&#45;&gt;gk -->
<g id="edge27" class="edge">
<title>kj-&gt;gk</title>
<path fill="none" stroke="#000000" d="M1780.2988,-95.8213C1823.8407,-110.9427 1930,-155.8259 1930,-234 1930,-594 1930,-594 1930,-594 1930,-634.8816 1939.1833,-654.3857 1911,-684 1888.1053,-708.0572 1795.6127,-725.0318 1743.0269,-732.9542"/>
<polygon fill="#000000" stroke="#000000" points="1742.4589,-729.5 1733.0743,-734.4174 1743.4771,-736.4256 1742.4589,-729.5"/>
</g>
<!-- rj -->
<g id="node42" class="node">
<title>rj</title>
<polygon fill="none" stroke="#000000" points="1685,-396 1658,-378 1685,-360 1712,-378 1685,-396"/>
<text text-anchor="middle" x="1685" y="-373.8" font-family="Times,serif" font-size="14.00" fill="#000000">rj</text>
</g>
<!-- bn&#45;&gt;rj -->
<g id="edge28" class="edge">
<title>bn-&gt;rj</title>
<path fill="none" stroke="#000000" d="M1717.4763,-436.4574C1711.8334,-426.3002 1703.9844,-412.1718 1697.4162,-400.3492"/>
<polygon fill="#000000" stroke="#000000" points="1700.406,-398.5237 1692.49,-391.4819 1694.2869,-401.9233 1700.406,-398.5237"/>
</g>
<!-- bn&#45;&gt;gk -->
<g id="edge29" class="edge">
<title>bn-&gt;gk</title>
<path fill="none" stroke="#000000" d="M1723.8362,-467.6412C1720.6456,-516.0033 1711.7396,-651.0001 1707.8533,-709.9084"/>
<polygon fill="#000000" stroke="#000000" points="1704.3545,-709.7756 1707.1885,-719.9843 1711.3393,-710.2364 1704.3545,-709.7756"/>
</g>
<!-- xc -->
<g id="node17" class="node">
<title>xc</title>
<polygon fill="none" stroke="#000000" points="671,-468 642.5024,-450 671,-432 699.4976,-450 671,-468"/>
<text text-anchor="middle" x="671" y="-445.8" font-family="Times,serif" font-size="14.00" fill="#000000">xc</text>
</g>
<!-- vq -->
<g id="node54" class="node">
<title>vq</title>
<polygon fill="none" stroke="#000000" points="634,-396 604.9682,-378 634,-360 663.0318,-378 634,-396"/>
<text text-anchor="middle" x="634" y="-373.8" font-family="Times,serif" font-size="14.00" fill="#000000">vq</text>
</g>
<!-- xc&#45;&gt;vq -->
<g id="edge30" class="edge">
<title>xc-&gt;vq</title>
<path fill="none" stroke="#000000" d="M663.866,-436.1177C658.7474,-426.1571 651.7334,-412.5083 645.7889,-400.9405"/>
<polygon fill="#000000" stroke="#000000" points="648.7958,-399.1343 641.1121,-391.8397 642.5698,-402.3338 648.7958,-399.1343"/>
</g>
<!-- fl&#45;&gt;gk -->
<g id="edge31" class="edge">
<title>fl-&gt;gk</title>
<path fill="none" stroke="#000000" d="M1644.4038,-27.4228C1616.2134,-48.1906 1554,-100.9401 1554,-162 1554,-594 1554,-594 1554,-594 1554,-639.7584 1571.3188,-651.9724 1604,-684 1622.4908,-702.121 1648.3007,-715.7062 1669.3307,-724.718"/>
<polygon fill="#000000" stroke="#000000" points="1668.0337,-727.969 1678.6133,-728.5366 1670.6968,-721.4953 1668.0337,-727.969"/>
</g>
<!-- dh -->
<g id="node19" class="node">
<title>dh</title>
<polygon fill="none" stroke="#000000" points="1269,-612 1239.9682,-594 1269,-576 1298.0318,-594 1269,-612"/>
<text text-anchor="middle" x="1269" y="-589.8" font-family="Times,serif" font-size="14.00" fill="#000000">dh</text>
</g>
<!-- dh&#45;&gt;hr -->
<g id="edge32" class="edge">
<title>dh-&gt;hr</title>
<path fill="none" stroke="#000000" d="M1263.2151,-608.6146C1253.8048,-632.3877 1235.0276,-679.825 1223.0116,-710.1813"/>
<polygon fill="#000000" stroke="#000000" points="1219.6453,-709.176 1219.2191,-719.7623 1226.154,-711.7524 1219.6453,-709.176"/>
</g>
<!-- nm -->
<g id="node52" class="node">
<title>nm</title>
<polygon fill="none" stroke="#000000" points="1235,-540 1201.8794,-522 1235,-504 1268.1206,-522 1235,-540"/>
<text text-anchor="middle" x="1235" y="-517.8" font-family="Times,serif" font-size="14.00" fill="#000000">nm</text>
</g>
<!-- dh&#45;&gt;nm -->
<g id="edge33" class="edge">
<title>dh-&gt;nm</title>
<path fill="none" stroke="#000000" d="M1262.2827,-579.7751C1257.7324,-570.1391 1251.6076,-557.1691 1246.3142,-545.9594"/>
<polygon fill="#000000" stroke="#000000" points="1249.3718,-544.2376 1241.9368,-536.6896 1243.042,-547.2267 1249.3718,-544.2376"/>
</g>
<!-- jk -->
<g id="node20" class="node">
<title>jk</title>
<polygon fill="none" stroke="#000000" points="1666,-324 1639,-306 1666,-288 1693,-306 1666,-324"/>
<text text-anchor="middle" x="1666" y="-301.8" font-family="Times,serif" font-size="14.00" fill="#000000">jk</text>
</g>
<!-- jk&#45;&gt;dg -->
<g id="edge35" class="edge">
<title>jk-&gt;dg</title>
<path fill="none" stroke="#000000" d="M1666,-287.8314C1666,-280.131 1666,-270.9743 1666,-262.4166"/>
<polygon fill="#000000" stroke="#000000" points="1669.5001,-262.4132 1666,-252.4133 1662.5001,-262.4133 1669.5001,-262.4132"/>
</g>
<!-- jk&#45;&gt;gk -->
<g id="edge34" class="edge">
<title>jk-&gt;gk</title>
<path fill="none" stroke="#000000" d="M1659.8931,-320.4194C1649.6221,-346.0179 1630,-401.2958 1630,-450 1630,-594 1630,-594 1630,-594 1630,-639.344 1659.8384,-684.4001 1682.1226,-711.7265"/>
<polygon fill="#000000" stroke="#000000" points="1679.6415,-714.2144 1688.7544,-719.6186 1685.0006,-709.7111 1679.6415,-714.2144"/>
</g>
<!-- tf -->
<g id="node21" class="node">
<title>tf</title>
<polygon fill="none" stroke="#000000" points="840,-612 813,-594 840,-576 867,-594 840,-612"/>
<text text-anchor="middle" x="840" y="-589.8" font-family="Times,serif" font-size="14.00" fill="#000000">tf</text>
</g>
<!-- cb -->
<g id="node55" class="node">
<title>cb</title>
<polygon fill="none" stroke="#000000" points="709,-540 680.5024,-522 709,-504 737.4976,-522 709,-540"/>
<text text-anchor="middle" x="709" y="-517.8" font-family="Times,serif" font-size="14.00" fill="#000000">cb</text>
</g>
<!-- tf&#45;&gt;cb -->
<g id="edge36" class="edge">
<title>tf-&gt;cb</title>
<path fill="none" stroke="#000000" d="M824.9726,-585.7407C802.4886,-573.383 759.8714,-549.9599 733.0321,-535.2085"/>
<polygon fill="#000000" stroke="#000000" points="734.705,-532.1342 724.2556,-530.3848 731.3334,-538.2687 734.705,-532.1342"/>
</g>
<!-- kd -->
<g id="node22" class="node">
<title>kd</title>
<polygon fill="none" stroke="#000000" points="680,-180 650.9682,-162 680,-144 709.0318,-162 680,-180"/>
<text text-anchor="middle" x="680" y="-157.8" font-family="Times,serif" font-size="14.00" fill="#000000">kd</text>
</g>
<!-- cm -->
<g id="node35" class="node">
<title>cm</title>
<polygon fill="none" stroke="#000000" points="680,-108 647.9105,-90 680,-72 712.0895,-90 680,-108"/>
<text text-anchor="middle" x="680" y="-85.8" font-family="Times,serif" font-size="14.00" fill="#000000">cm</text>
</g>
<!-- kd&#45;&gt;cm -->
<g id="edge37" class="edge">
<title>kd-&gt;cm</title>
<path fill="none" stroke="#000000" d="M680,-143.8314C680,-136.131 680,-126.9743 680,-118.4166"/>
<polygon fill="#000000" stroke="#000000" points="683.5001,-118.4132 680,-108.4133 676.5001,-118.4133 683.5001,-118.4132"/>
</g>
<!-- nr -->
<g id="node40" class="node">
<title>nr</title>
<polygon fill="none" stroke="#000000" points="743,-684 689,-684 689,-648 743,-648 743,-684"/>
<text text-anchor="middle" x="716" y="-661.8" font-family="Times,serif" font-size="14.00" fill="#000000">nr</text>
</g>
<!-- kd&#45;&gt;nr -->
<g id="edge38" class="edge">
<title>kd-&gt;nr</title>
<path fill="none" stroke="#000000" d="M692.1784,-172.9892C715.6817,-195.4711 765,-249.3906 765,-306 765,-450 765,-450 765,-450 765,-519.1249 740.8382,-597.6787 726.4479,-638.3339"/>
<polygon fill="#000000" stroke="#000000" points="723.1252,-637.2303 723.0205,-647.8246 729.7091,-639.6079 723.1252,-637.2303"/>
</g>
<!-- hr&#45;&gt;kv -->
<g id="edge40" class="edge">
<title>hr-&gt;kv</title>
<path fill="none" stroke="#000000" d="M1216.6951,-756.4573C1219.2171,-781.8918 1219.4176,-827.8199 1217.2968,-856.5145"/>
<polygon fill="#000000" stroke="#000000" points="1213.8009,-856.311 1216.3704,-866.5895 1220.7715,-856.952 1213.8009,-856.311"/>
</g>
<!-- hh -->
<g id="node43" class="node">
<title>hh</title>
<polygon fill="none" stroke="#000000" points="1032,-684 978,-684 978,-648 1032,-648 1032,-684"/>
<text text-anchor="middle" x="1005" y="-661.8" font-family="Times,serif" font-size="14.00" fill="#000000">hh</text>
</g>
<!-- hr&#45;&gt;hh -->
<g id="edge39" class="edge">
<title>hr-&gt;hh</title>
<path fill="none" stroke="#000000" d="M1184.9765,-730.1106C1151.8862,-720.2441 1094.2844,-702.4006 1046,-684 1044.5926,-683.4636 1043.1633,-682.9054 1041.7236,-682.3316"/>
<polygon fill="#000000" stroke="#000000" points="1042.7694,-678.9765 1032.191,-678.387 1040.0929,-685.4447 1042.7694,-678.9765"/>
</g>
<!-- qq -->
<g id="node47" class="node">
<title>qq</title>
<polygon fill="none" stroke="#000000" points="1459,-684 1429.9682,-666 1459,-648 1488.0318,-666 1459,-684"/>
<text text-anchor="middle" x="1459" y="-661.8" font-family="Times,serif" font-size="14.00" fill="#000000">qq</text>
</g>
<!-- hr&#45;&gt;qq -->
<g id="edge42" class="edge">
<title>hr-&gt;qq</title>
<path fill="none" stroke="#000000" d="M1239.0827,-732.0845C1278.492,-723.1956 1353.7351,-705.1609 1416,-684 1421.4596,-682.1446 1427.211,-679.9276 1432.6689,-677.6941"/>
<polygon fill="#000000" stroke="#000000" points="1434.2005,-680.8466 1442.0497,-673.7305 1431.4759,-674.3986 1434.2005,-680.8466"/>
</g>
<!-- xl -->
<g id="node57" class="node">
<title>xl</title>
<polygon fill="none" stroke="#000000" points="1220,-396 1193,-378 1220,-360 1247,-378 1220,-396"/>
<text text-anchor="middle" x="1220" y="-373.8" font-family="Times,serif" font-size="14.00" fill="#000000">xl</text>
</g>
<!-- hr&#45;&gt;xl -->
<g id="edge41" class="edge">
<title>hr-&gt;xl</title>
<path fill="none" stroke="#000000" d="M1239.0164,-720.633C1272.7278,-696.6024 1326,-649.8003 1326,-594 1326,-594 1326,-594 1326,-522 1326,-465.8172 1273.0205,-417.1013 1241.9713,-393.3752"/>
<polygon fill="#000000" stroke="#000000" points="1243.9754,-390.504 1233.8576,-387.3604 1239.8067,-396.1274 1243.9754,-390.504"/>
</g>
<!-- kv&#45;&gt;hr -->
<g id="edge44" class="edge">
<title>kv-&gt;hr</title>
<path fill="none" stroke="#000000" d="M1207.6296,-866.5895C1204.9037,-842.8096 1204.5197,-796.7817 1206.4777,-766.7338"/>
<polygon fill="#000000" stroke="#000000" points="1209.9911,-766.7059 1207.3049,-756.4573 1203.0137,-766.1441 1209.9911,-766.7059"/>
</g>
<!-- xr -->
<g id="node34" class="node">
<title>xr</title>
<polygon fill="none" stroke="#000000" points="1276,-828 1249,-810 1276,-792 1303,-810 1276,-828"/>
<text text-anchor="middle" x="1276" y="-805.8" font-family="Times,serif" font-size="14.00" fill="#000000">xr</text>
</g>
<!-- kv&#45;&gt;xr -->
<g id="edge43" class="edge">
<title>kv-&gt;xr</title>
<path fill="none" stroke="#000000" d="M1222.5683,-870.1107C1232.4471,-858.997 1247.3694,-842.2095 1258.9355,-829.1975"/>
<polygon fill="#000000" stroke="#000000" points="1261.6006,-831.4675 1265.6284,-821.6681 1256.3687,-826.8169 1261.6006,-831.4675"/>
</g>
<!-- hq -->
<g id="node25" class="node">
<title>hq</title>
<polygon fill="none" stroke="#000000" points="1801,-612 1771.9682,-594 1801,-576 1830.0318,-594 1801,-612"/>
<text text-anchor="middle" x="1801" y="-589.8" font-family="Times,serif" font-size="14.00" fill="#000000">hq</text>
</g>
<!-- hq&#45;&gt;ql -->
<g id="edge45" class="edge">
<title>hq-&gt;ql</title>
<path fill="none" stroke="#000000" d="M1793.4763,-580.4574C1787.8334,-570.3002 1779.9844,-556.1718 1773.4162,-544.3492"/>
<polygon fill="#000000" stroke="#000000" points="1776.406,-542.5237 1768.49,-535.4819 1770.2869,-545.9233 1776.406,-542.5237"/>
</g>
<!-- fn -->
<g id="node26" class="node">
<title>fn</title>
<polygon fill="none" stroke="#000000" points="939,-612 885,-612 885,-576 939,-576 939,-612"/>
<text text-anchor="middle" x="912" y="-589.8" font-family="Times,serif" font-size="14.00" fill="#000000">fn</text>
</g>
<!-- fn&#45;&gt;nc -->
<g id="edge46" class="edge">
<title>fn-&gt;nc</title>
<path fill="none" stroke="#000000" d="M930.6733,-575.8314C939.5249,-567.219 950.2486,-556.7851 959.8895,-547.4048"/>
<polygon fill="#000000" stroke="#000000" points="962.6061,-549.645 967.3326,-540.1628 957.7246,-544.6279 962.6061,-549.645"/>
</g>
<!-- vm&#45;&gt;gl -->
<g id="edge47" class="edge">
<title>vm-&gt;gl</title>
<path fill="none" stroke="#000000" d="M251.8575,-827.6392C253.0423,-852.0135 255.194,-896.2775 256.6102,-925.4106"/>
<polygon fill="#000000" stroke="#000000" points="253.1319,-925.9441 257.1134,-935.7623 260.1237,-925.6041 253.1319,-925.9441"/>
</g>
<!-- xn -->
<g id="node50" class="node">
<title>xn</title>
<polygon fill="none" stroke="#000000" points="230,-756 200.9682,-738 230,-720 259.0318,-738 230,-756"/>
<text text-anchor="middle" x="230" y="-733.8" font-family="Times,serif" font-size="14.00" fill="#000000">xn</text>
</g>
<!-- vm&#45;&gt;xn -->
<g id="edge48" class="edge">
<title>vm-&gt;xn</title>
<path fill="none" stroke="#000000" d="M246.4433,-794.3771C243.8015,-785.3195 240.4113,-773.6958 237.3962,-763.3584"/>
<polygon fill="#000000" stroke="#000000" points="240.7079,-762.2124 234.5478,-753.5924 233.9879,-764.1725 240.7079,-762.2124"/>
</g>
<!-- jh -->
<g id="node28" class="node">
<title>jh</title>
<polygon fill="none" stroke="#000000" points="614,-252 587,-234 614,-216 641,-234 614,-252"/>
<text text-anchor="middle" x="614" y="-229.8" font-family="Times,serif" font-size="14.00" fill="#000000">jh</text>
</g>
<!-- jh&#45;&gt;kd -->
<g id="edge50" class="edge">
<title>jh-&gt;kd</title>
<path fill="none" stroke="#000000" d="M624.3125,-222.75C634.4004,-211.745 649.9707,-194.7592 662.0851,-181.5436"/>
<polygon fill="#000000" stroke="#000000" points="664.9242,-183.6259 669.1014,-173.8893 659.7641,-178.8959 664.9242,-183.6259"/>
</g>
<!-- jh&#45;&gt;nr -->
<g id="edge49" class="edge">
<title>jh-&gt;nr</title>
<path fill="none" stroke="#000000" d="M603.2543,-245.2691C582.5162,-268.2543 539,-323.0341 539,-378 539,-522 539,-522 539,-522 539,-568.8778 558.7407,-581.108 594,-612 618.5314,-633.4929 652.9861,-647.6792 679.0262,-656.0942"/>
<polygon fill="#000000" stroke="#000000" points="678.321,-659.5394 688.9084,-659.1438 680.3851,-652.8506 678.321,-659.5394"/>
</g>
<!-- dd -->
<g id="node53" class="node">
<title>dd</title>
<polygon fill="none" stroke="#000000" points="320,-540 290.9682,-522 320,-504 349.0318,-522 320,-540"/>
<text text-anchor="middle" x="320" y="-517.8" font-family="Times,serif" font-size="14.00" fill="#000000">dd</text>
</g>
<!-- mz&#45;&gt;dd -->
<g id="edge51" class="edge">
<title>mz-&gt;dd</title>
<path fill="none" stroke="#000000" d="M296.216,-579.0816C300.2106,-569.4946 305.4884,-556.8279 310.0572,-545.8627"/>
<polygon fill="#000000" stroke="#000000" points="313.3812,-546.985 313.9967,-536.408 306.9197,-544.2926 313.3812,-546.985"/>
</g>
<!-- tp -->
<g id="node30" class="node">
<title>tp</title>
<polygon fill="none" stroke="#000000" points="1875,-684 1848,-666 1875,-648 1902,-666 1875,-684"/>
<text text-anchor="middle" x="1875" y="-661.8" font-family="Times,serif" font-size="14.00" fill="#000000">tp</text>
</g>
<!-- tp&#45;&gt;hq -->
<g id="edge52" class="edge">
<title>tp-&gt;hq</title>
<path fill="none" stroke="#000000" d="M1863.761,-655.0647C1852.0256,-643.6465 1833.4262,-625.5498 1819.5165,-612.0161"/>
<polygon fill="#000000" stroke="#000000" points="1821.9528,-609.5032 1812.3448,-605.0382 1817.0713,-614.5203 1821.9528,-609.5032"/>
</g>
<!-- cf -->
<g id="node31" class="node">
<title>cf</title>
<polygon fill="none" stroke="#000000" points="634,-36 607,-18 634,0 661,-18 634,-36"/>
<text text-anchor="middle" x="634" y="-13.8" font-family="Times,serif" font-size="14.00" fill="#000000">cf</text>
</g>
<!-- cf&#45;&gt;nr -->
<g id="edge53" class="edge">
<title>cf-&gt;nr</title>
<path fill="none" stroke="#000000" d="M618.2209,-25.612C582.9906,-43.836 501,-93.5962 501,-162 501,-522 501,-522 501,-522 501,-567.9758 516.444,-582.853 552,-612 588.7132,-642.0956 642.7648,-655.621 678.6532,-661.5602"/>
<polygon fill="#000000" stroke="#000000" points="678.3005,-665.047 688.716,-663.1059 679.3633,-658.1282 678.3005,-665.047"/>
</g>
<!-- gr -->
<g id="node32" class="node">
<title>gr</title>
<polygon fill="none" stroke="#000000" points="614,-324 587,-306 614,-288 641,-306 614,-324"/>
<text text-anchor="middle" x="614" y="-301.8" font-family="Times,serif" font-size="14.00" fill="#000000">gr</text>
</g>
<!-- gr&#45;&gt;jh -->
<g id="edge54" class="edge">
<title>gr-&gt;jh</title>
<path fill="none" stroke="#000000" d="M614,-287.8314C614,-280.131 614,-270.9743 614,-262.4166"/>
<polygon fill="#000000" stroke="#000000" points="617.5001,-262.4132 614,-252.4133 610.5001,-262.4133 617.5001,-262.4132"/>
</g>
<!-- jd -->
<g id="node33" class="node">
<title>jd</title>
<polygon fill="none" stroke="#000000" points="1190,-324 1163,-306 1190,-288 1217,-306 1190,-324"/>
<text text-anchor="middle" x="1190" y="-301.8" font-family="Times,serif" font-size="14.00" fill="#000000">jd</text>
</g>
<!-- jd&#45;&gt;bm -->
<g id="edge56" class="edge">
<title>jd-&gt;bm</title>
<path fill="none" stroke="#000000" d="M1190,-287.8314C1190,-280.131 1190,-270.9743 1190,-262.4166"/>
<polygon fill="#000000" stroke="#000000" points="1193.5001,-262.4132 1190,-252.4133 1186.5001,-262.4133 1193.5001,-262.4132"/>
</g>
<!-- jd&#45;&gt;hr -->
<g id="edge55" class="edge">
<title>jd-&gt;hr</title>
<path fill="none" stroke="#000000" d="M1181.5625,-318.888C1166.375,-343.368 1136,-398.736 1136,-450 1136,-594 1136,-594 1136,-594 1136,-639.344 1165.8384,-684.4001 1188.1226,-711.7265"/>
<polygon fill="#000000" stroke="#000000" points="1185.6415,-714.2144 1194.7544,-719.6186 1191.0006,-709.7111 1185.6415,-714.2144"/>
</g>
<!-- xr&#45;&gt;hr -->
<g id="edge58" class="edge">
<title>xr-&gt;hr</title>
<path fill="none" stroke="#000000" d="M1265.7173,-798.432C1257.3695,-789.0407 1245.2883,-775.4494 1234.6965,-763.5336"/>
<polygon fill="#000000" stroke="#000000" points="1237.265,-761.1549 1228.0054,-756.0061 1232.0331,-765.8055 1237.265,-761.1549"/>
</g>
<!-- xr&#45;&gt;qq -->
<g id="edge57" class="edge">
<title>xr-&gt;qq</title>
<path fill="none" stroke="#000000" d="M1288.5783,-800.1023C1319.5088,-775.7636 1399.5397,-712.7884 1437.8955,-682.6068"/>
<polygon fill="#000000" stroke="#000000" points="1440.1493,-685.287 1445.8437,-676.3525 1435.8206,-679.7859 1440.1493,-685.287"/>
</g>
<!-- cm&#45;&gt;cf -->
<g id="edge60" class="edge">
<title>cm-&gt;cf</title>
<path fill="none" stroke="#000000" d="M671.3478,-76.4574C664.7112,-66.0698 655.4212,-51.5288 647.7669,-39.5483"/>
<polygon fill="#000000" stroke="#000000" points="650.637,-37.5396 642.3036,-30.997 644.7381,-41.3083 650.637,-37.5396"/>
</g>
<!-- cm&#45;&gt;nr -->
<g id="edge59" class="edge">
<title>cm-&gt;nr</title>
<path fill="none" stroke="#000000" d="M696.3335,-98.9495C729.7919,-118.6155 803,-169.0648 803,-234 803,-450 803,-450 803,-450 803,-525.094 788.1203,-544.6045 755,-612 750.2565,-621.6523 743.8125,-631.4182 737.5296,-639.9412"/>
<polygon fill="#000000" stroke="#000000" points="734.6619,-637.9296 731.3692,-647.9998 740.2231,-642.1808 734.6619,-637.9296"/>
</g>
<!-- fh -->
<g id="node36" class="node">
<title>fh</title>
<polygon fill="none" stroke="#000000" points="935,-828 881,-828 881,-792 935,-792 935,-828"/>
<text text-anchor="middle" x="908" y="-805.8" font-family="Times,serif" font-size="14.00" fill="#000000">fh</text>
</g>
<!-- fh&#45;&gt;nc -->
<g id="edge61" class="edge">
<title>fh-&gt;nc</title>
<path fill="none" stroke="#000000" d="M912.8792,-791.9843C926.0936,-743.1929 962.644,-608.2377 978.4999,-549.6927"/>
<polygon fill="#000000" stroke="#000000" points="981.8867,-550.5761 981.1226,-540.0089 975.1301,-548.7462 981.8867,-550.5761"/>
</g>
<!-- rb -->
<g id="node37" class="node">
<title>rb</title>
<polygon fill="none" stroke="#000000" points="1220,-468 1193,-450 1220,-432 1247,-450 1220,-468"/>
<text text-anchor="middle" x="1220" y="-445.8" font-family="Times,serif" font-size="14.00" fill="#000000">rb</text>
</g>
<!-- rb&#45;&gt;hr -->
<g id="edge63" class="edge">
<title>rb-&gt;hr</title>
<path fill="none" stroke="#000000" d="M1211.5413,-462.6622C1205.0314,-473.2129 1196.5641,-488.9023 1193,-504 1175.7912,-576.8976 1193.0795,-665.7168 1204.2055,-710.0353"/>
<polygon fill="#000000" stroke="#000000" points="1200.8412,-711.0053 1206.7417,-719.805 1207.6167,-709.2464 1200.8412,-711.0053"/>
</g>
<!-- rb&#45;&gt;xl -->
<g id="edge62" class="edge">
<title>rb-&gt;xl</title>
<path fill="none" stroke="#000000" d="M1220,-431.8314C1220,-424.131 1220,-414.9743 1220,-406.4166"/>
<polygon fill="#000000" stroke="#000000" points="1223.5001,-406.4132 1220,-396.4133 1216.5001,-406.4133 1223.5001,-406.4132"/>
</g>
<!-- rx -->
<g id="node59" class="node">
<title>rx</title>
<ellipse fill="none" stroke="#000000" cx="986" cy="-450" rx="27" ry="18"/>
<text text-anchor="middle" x="986" y="-445.8" font-family="Times,serif" font-size="14.00" fill="#000000">rx</text>
</g>
<!-- nc&#45;&gt;rx -->
<g id="edge64" class="edge">
<title>nc-&gt;rx</title>
<path fill="none" stroke="#000000" d="M986,-503.8314C986,-496.131 986,-486.9743 986,-478.4166"/>
<polygon fill="#000000" stroke="#000000" points="989.5001,-478.4132 986,-468.4133 982.5001,-478.4133 989.5001,-478.4132"/>
</g>
<!-- mp&#45;&gt;kj -->
<g id="edge66" class="edge">
<title>mp-&gt;kj</title>
<path fill="none" stroke="#000000" d="M1762,-143.8314C1762,-136.131 1762,-126.9743 1762,-118.4166"/>
<polygon fill="#000000" stroke="#000000" points="1765.5001,-118.4132 1762,-108.4133 1758.5001,-118.4133 1765.5001,-118.4132"/>
</g>
<!-- mp&#45;&gt;gk -->
<g id="edge65" class="edge">
<title>mp-&gt;gk</title>
<path fill="none" stroke="#000000" d="M1775.7545,-172.6518C1802.2993,-194.5271 1858,-247.4098 1858,-306 1858,-522 1858,-522 1858,-522 1858,-601.5295 1839.6756,-629.2418 1782,-684 1769.7712,-695.6103 1754.9091,-706.7138 1741.5822,-715.8003"/>
<polygon fill="#000000" stroke="#000000" points="1739.4663,-713.0044 1733.0893,-721.4652 1743.3506,-718.8278 1739.4663,-713.0044"/>
</g>
<!-- nr&#45;&gt;xc -->
<g id="edge72" class="edge">
<title>nr-&gt;xc</title>
<path fill="none" stroke="#000000" d="M707.4916,-647.722C696.7866,-623.6487 678.9614,-579.711 672,-540 668.3632,-519.2543 668.2789,-495.4045 669.0143,-477.4706"/>
<polygon fill="#000000" stroke="#000000" points="672.5135,-477.575 669.5375,-467.4068 665.523,-477.2115 672.5135,-477.575"/>
</g>
<!-- nr&#45;&gt;tf -->
<g id="edge71" class="edge">
<title>nr-&gt;tf</title>
<path fill="none" stroke="#000000" d="M743.2123,-650.1993C765.0978,-637.4916 795.5338,-619.8191 816.3992,-607.7037"/>
<polygon fill="#000000" stroke="#000000" points="818.357,-610.6142 825.2474,-602.566 814.842,-604.5606 818.357,-610.6142"/>
</g>
<!-- nr&#45;&gt;fn -->
<g id="edge69" class="edge">
<title>nr-&gt;fn</title>
<path fill="none" stroke="#000000" d="M743.0294,-658.1281C773.3616,-649.0255 824.0953,-632.996 875.4179,-611.9925"/>
<polygon fill="#000000" stroke="#000000" points="876.7693,-615.2212 884.6644,-608.1559 874.0865,-608.7557 876.7693,-615.2212"/>
</g>
<!-- nr&#45;&gt;gr -->
<g id="edge68" class="edge">
<title>nr-&gt;gr</title>
<path fill="none" stroke="#000000" d="M688.8694,-653.2351C648.4179,-632.1013 577,-585.7607 577,-522 577,-522 577,-522 577,-450 577,-406.3211 593.1666,-357.468 604.1272,-329.3659"/>
<polygon fill="#000000" stroke="#000000" points="607.4099,-330.5834 607.8902,-319.9994 600.9145,-327.9738 607.4099,-330.5834"/>
</g>
<!-- nr&#45;&gt;fd -->
<g id="edge67" class="edge">
<title>nr-&gt;fd</title>
<path fill="none" stroke="#000000" d="M722.6818,-684.3061C731.7596,-722.275 744.9598,-809.7786 748.6119,-854.5403"/>
<polygon fill="#000000" stroke="#000000" points="745.1321,-854.9539 749.3129,-864.6889 752.1154,-854.4715 745.1321,-854.9539"/>
</g>
<!-- nr&#45;&gt;vq -->
<g id="edge73" class="edge">
<title>nr-&gt;vq</title>
<path fill="none" stroke="#000000" d="M701.091,-647.9198C693.356,-637.8379 684.2453,-624.7694 678,-612 648.5982,-551.8838 643.8863,-534.1867 634,-468 630.8887,-447.1703 631.0537,-423.325 631.9075,-405.4142"/>
<polygon fill="#000000" stroke="#000000" points="635.4053,-405.551 632.4875,-395.3659 628.4169,-405.1476 635.4053,-405.551"/>
</g>
<!-- nr&#45;&gt;cb -->
<g id="edge70" class="edge">
<title>nr-&gt;cb</title>
<path fill="none" stroke="#000000" d="M715.1134,-647.7623C713.913,-623.0668 711.7595,-578.7665 710.3554,-549.8817"/>
<polygon fill="#000000" stroke="#000000" points="713.839,-549.4574 709.8575,-539.6392 706.8472,-549.7974 713.839,-549.4574"/>
</g>
<!-- gl&#45;&gt;rz -->
<g id="edge78" class="edge">
<title>gl-&gt;rz</title>
<path fill="none" stroke="#000000" d="M280.3099,-935.8314C299.1023,-922.9431 325.7236,-905.9756 345.1853,-894.5643"/>
<polygon fill="#000000" stroke="#000000" points="347.1661,-897.463 354.0984,-889.4509 343.6827,-891.3912 347.1661,-897.463"/>
</g>
<!-- gl&#45;&gt;sp -->
<g id="edge76" class="edge">
<title>gl-&gt;sp</title>
<path fill="none" stroke="#000000" d="M285.098,-951.8883C318.6343,-947.769 375.0852,-935.6416 406,-900 432.7872,-869.1171 425,-850.8816 425,-810 425,-810 425,-810 425,-594 425,-538.0029 372.5203,-489.2102 341.764,-465.423"/>
<polygon fill="#000000" stroke="#000000" points="343.8261,-462.5945 333.7269,-459.3917 339.6245,-468.1934 343.8261,-462.5945"/>
</g>
<!-- gl&#45;&gt;mz -->
<g id="edge77" class="edge">
<title>gl-&gt;mz</title>
<path fill="none" stroke="#000000" d="M264.6829,-935.9631C273.2488,-911.7916 287.634,-867.3667 293,-828 303.1171,-753.7778 297.1051,-665.0895 292.949,-621.2722"/>
<polygon fill="#000000" stroke="#000000" points="296.4135,-620.7407 291.9433,-611.1351 289.4477,-621.4318 296.4135,-620.7407"/>
</g>
<!-- gl&#45;&gt;fh -->
<g id="edge74" class="edge">
<title>gl-&gt;fh</title>
<path fill="none" stroke="#000000" d="M285.0741,-953.0738C379.1526,-949.5697 691.1759,-935.4776 784,-900 821.9506,-885.4952 858.7554,-856.2622 882.273,-835.0383"/>
<polygon fill="#000000" stroke="#000000" points="884.7354,-837.5287 889.7216,-828.1805 879.9941,-832.379 884.7354,-837.5287"/>
</g>
<!-- gl&#45;&gt;mj -->
<g id="edge79" class="edge">
<title>gl-&gt;mj</title>
<path fill="none" stroke="#000000" d="M230.9147,-942.008C189.2014,-921.4821 114,-875.4074 114,-810 114,-810 114,-810 114,-522 114,-480.3718 122.3013,-432.6125 128.2076,-403.9006"/>
<polygon fill="#000000" stroke="#000000" points="131.6816,-404.39 130.3317,-393.8816 124.8338,-402.9382 131.6816,-404.39"/>
</g>
<!-- gl&#45;&gt;xn -->
<g id="edge75" class="edge">
<title>gl-&gt;xn</title>
<path fill="none" stroke="#000000" d="M248.4562,-935.8538C236.4608,-911.923 216.5302,-868.1392 209,-828 206.0498,-812.2743 206.0498,-807.7257 209,-792 210.9614,-781.545 214.8857,-770.5131 218.8167,-761.1649"/>
<polygon fill="#000000" stroke="#000000" points="222.1212,-762.348 222.9921,-751.789 215.7266,-759.5002 222.1212,-762.348"/>
</g>
<!-- gl&#45;&gt;dd -->
<g id="edge80" class="edge">
<title>gl-&gt;dd</title>
<path fill="none" stroke="#000000" d="M272.7811,-935.8562C280.4786,-925.7557 289.5943,-912.6897 296,-900 330.201,-832.2483 350,-813.8947 350,-738 350,-738 350,-738 350,-666 350,-623.4294 337.2788,-575.2395 328.404,-546.8004"/>
<polygon fill="#000000" stroke="#000000" points="331.6201,-545.3684 325.2256,-536.9208 324.9564,-547.5122 331.6201,-545.3684"/>
</g>
<!-- rj&#45;&gt;jk -->
<g id="edge81" class="edge">
<title>rj-&gt;jk</title>
<path fill="none" stroke="#000000" d="M1680.8773,-362.3771C1678.4871,-353.3195 1675.4197,-341.6958 1672.6918,-331.3584"/>
<polygon fill="#000000" stroke="#000000" points="1676.0504,-330.3684 1670.1147,-321.5924 1669.2821,-332.1545 1676.0504,-330.3684"/>
</g>
<!-- hh&#45;&gt;nc -->
<g id="edge82" class="edge">
<title>hh-&gt;nc</title>
<path fill="none" stroke="#000000" d="M1002.5936,-647.7623C999.3529,-623.201 993.5535,-579.2474 989.7412,-550.3541"/>
<polygon fill="#000000" stroke="#000000" points="993.1649,-549.5458 988.3868,-540.0896 986.2251,-550.4616 993.1649,-549.5458"/>
</g>
<!-- fd&#45;&gt;nr -->
<g id="edge83" class="edge">
<title>fd-&gt;nr</title>
<path fill="none" stroke="#000000" d="M742.255,-867.4922C733.2115,-832.0396 719.2789,-740.5162 715.4335,-694.0126"/>
<polygon fill="#000000" stroke="#000000" points="718.9231,-693.7406 714.7256,-684.0127 711.9405,-694.235 718.9231,-693.7406"/>
</g>
<!-- df -->
<g id="node48" class="node">
<title>df</title>
<polygon fill="none" stroke="#000000" points="780,-828 753,-810 780,-792 807,-810 780,-828"/>
<text text-anchor="middle" x="780" y="-805.8" font-family="Times,serif" font-size="14.00" fill="#000000">df</text>
</g>
<!-- fd&#45;&gt;df -->
<g id="edge84" class="edge">
<title>fd-&gt;df</title>
<path fill="none" stroke="#000000" d="M754.3222,-867.7751C758.6612,-858.0123 764.5212,-844.8272 769.5476,-833.5179"/>
<polygon fill="#000000" stroke="#000000" points="772.8279,-834.755 773.691,-824.1953 766.4312,-831.912 772.8279,-834.755"/>
</g>
<!-- gk&#45;&gt;ql -->
<g id="edge88" class="edge">
<title>gk-&gt;ql</title>
<path fill="none" stroke="#000000" d="M1710.8213,-719.5125C1713.5329,-709.0874 1716.9717,-695.8213 1720,-684 1732.3544,-635.7726 1746.5685,-579.4097 1754.5979,-547.4879"/>
<polygon fill="#000000" stroke="#000000" points="1758.0282,-548.1979 1757.0722,-537.6463 1751.2395,-546.4911 1758.0282,-548.1979"/>
</g>
<!-- gk&#45;&gt;fp -->
<g id="edge87" class="edge">
<title>gk-&gt;fp</title>
<path fill="none" stroke="#000000" d="M1710.6566,-756.0726C1713.2222,-781.4979 1713.4296,-827.9358 1711.2787,-856.7582"/>
<polygon fill="#000000" stroke="#000000" points="1707.7803,-856.5804 1710.3389,-866.8616 1714.7502,-857.2288 1707.7803,-856.5804"/>
</g>
<!-- gk&#45;&gt;lk -->
<g id="edge85" class="edge">
<title>gk-&gt;lk</title>
<path fill="none" stroke="#000000" d="M1678.84,-732.5305C1644.8603,-724.9493 1585.6003,-709.2539 1540,-684 1518.1959,-671.9247 1516.8227,-663.1095 1497,-648 1483.4611,-637.6802 1468.1399,-626.891 1454.6825,-617.6936"/>
<polygon fill="#000000" stroke="#000000" points="1456.3857,-614.6196 1446.1457,-611.9004 1452.455,-620.4118 1456.3857,-614.6196"/>
</g>
<!-- gk&#45;&gt;hq -->
<g id="edge89" class="edge">
<title>gk-&gt;hq</title>
<path fill="none" stroke="#000000" d="M1726.3916,-719.8294C1736.7205,-709.9256 1748.9543,-697.0498 1758,-684 1772.383,-663.2501 1784.3304,-636.9435 1791.9512,-618.1397"/>
<polygon fill="#000000" stroke="#000000" points="1795.22,-619.391 1795.6299,-608.8041 1788.7074,-616.8247 1795.22,-619.391"/>
</g>
<!-- gk&#45;&gt;tp -->
<g id="edge86" class="edge">
<title>gk-&gt;tp</title>
<path fill="none" stroke="#000000" d="M1733.0173,-726.7355C1758.9561,-715.8891 1799.2185,-698.9708 1834,-684 1838.9604,-681.8649 1844.2478,-679.5631 1849.3195,-677.3423"/>
<polygon fill="#000000" stroke="#000000" points="1850.9165,-680.4637 1858.6638,-673.2366 1848.1006,-674.055 1850.9165,-680.4637"/>
</g>
<!-- gk&#45;&gt;rj -->
<g id="edge90" class="edge">
<title>gk-&gt;rj</title>
<path fill="none" stroke="#000000" d="M1697.9412,-719.7668C1686.7866,-692.8248 1668,-640.5405 1668,-594 1668,-594 1668,-594 1668,-522 1668,-480.7045 1674.9805,-433.2041 1679.9953,-404.4075"/>
<polygon fill="#000000" stroke="#000000" points="1683.4808,-404.7996 1681.8024,-394.3386 1676.5909,-403.563 1683.4808,-404.7996"/>
</g>
<!-- fj&#45;&gt;pt -->
<g id="edge91" class="edge">
<title>fj-&gt;pt</title>
<path fill="none" stroke="#000000" d="M1130,-143.8314C1130,-136.131 1130,-126.9743 1130,-118.4166"/>
<polygon fill="#000000" stroke="#000000" points="1133.5001,-118.4132 1130,-108.4133 1126.5001,-118.4133 1133.5001,-118.4132"/>
</g>
<!-- fj&#45;&gt;hr -->
<g id="edge92" class="edge">
<title>fj-&gt;hr</title>
<path fill="none" stroke="#000000" d="M1124.5716,-176.4814C1115.4419,-202.1757 1098,-257.5974 1098,-306 1098,-594 1098,-594 1098,-594 1098,-645.4409 1143.2736,-689.2346 1176.7591,-714.5904"/>
<polygon fill="#000000" stroke="#000000" points="1174.8525,-717.5328 1184.9836,-720.633 1178.9971,-711.8916 1174.8525,-717.5328"/>
</g>
<!-- qq&#45;&gt;dh -->
<g id="edge93" class="edge">
<title>qq-&gt;dh</title>
<path fill="none" stroke="#000000" d="M1440.782,-659.0963C1407.3734,-646.4362 1336.1252,-619.4369 1296.6916,-604.4937"/>
<polygon fill="#000000" stroke="#000000" points="1297.7542,-601.1535 1287.1628,-600.8828 1295.2737,-607.6993 1297.7542,-601.1535"/>
</g>
<!-- df&#45;&gt;nr -->
<g id="edge94" class="edge">
<title>df-&gt;nr</title>
<path fill="none" stroke="#000000" d="M773.7469,-795.9305C763.2457,-772.3028 741.885,-724.2413 728.2927,-693.6587"/>
<polygon fill="#000000" stroke="#000000" points="731.436,-692.1132 724.1762,-684.3966 725.0393,-694.9562 731.436,-692.1132"/>
</g>
<!-- nv -->
<g id="node56" class="node">
<title>nv</title>
<polygon fill="none" stroke="#000000" points="820,-756 790.9682,-738 820,-720 849.0318,-738 820,-756"/>
<text text-anchor="middle" x="820" y="-733.8" font-family="Times,serif" font-size="14.00" fill="#000000">nv</text>
</g>
<!-- df&#45;&gt;nv -->
<g id="edge95" class="edge">
<title>df-&gt;nv</title>
<path fill="none" stroke="#000000" d="M787.3366,-796.7941C792.9603,-786.6714 800.8533,-772.4641 807.4715,-760.5514"/>
<polygon fill="#000000" stroke="#000000" points="810.6412,-762.0528 812.4381,-751.6114 804.5221,-758.6532 810.6412,-762.0528"/>
</g>
<!-- mj&#45;&gt;ms -->
<g id="edge96" class="edge">
<title>mj-&gt;ms</title>
<path fill="none" stroke="#000000" d="M127.0588,-364.1177C122.1424,-354.2848 115.4288,-340.8576 109.6932,-329.3864"/>
<polygon fill="#000000" stroke="#000000" points="112.7689,-327.7115 105.1663,-320.3325 106.5079,-330.8421 112.7689,-327.7115"/>
</g>
<!-- xn&#45;&gt;xg -->
<g id="edge97" class="edge">
<title>xn-&gt;xg</title>
<path fill="none" stroke="#000000" d="M230,-719.8314C230,-712.131 230,-702.9743 230,-694.4166"/>
<polygon fill="#000000" stroke="#000000" points="233.5001,-694.4132 230,-684.4133 226.5001,-694.4133 233.5001,-694.4132"/>
</g>
<!-- cc&#45;&gt;tp -->
<g id="edge99" class="edge">
<title>cc-&gt;tp</title>
<path fill="none" stroke="#000000" d="M1780.0474,-797.4729C1798.039,-772.5614 1838.453,-716.6036 1860.3054,-686.3464"/>
<polygon fill="#000000" stroke="#000000" points="1863.1771,-688.348 1866.1947,-678.192 1857.5024,-684.2496 1863.1771,-688.348"/>
</g>
<!-- cc&#45;&gt;gk -->
<g id="edge98" class="edge">
<title>cc-&gt;gk</title>
<path fill="none" stroke="#000000" d="M1760.5566,-798.432C1752.0784,-789.0407 1739.8085,-775.4494 1729.0511,-763.5336"/>
<polygon fill="#000000" stroke="#000000" points="1731.5545,-761.0834 1722.2555,-756.0061 1726.3586,-765.7742 1731.5545,-761.0834"/>
</g>
<!-- nm&#45;&gt;hr -->
<g id="edge101" class="edge">
<title>nm-&gt;hr</title>
<path fill="none" stroke="#000000" d="M1233.1642,-539.2401C1229.203,-576.4409 1219.8221,-664.5399 1214.9906,-709.9146"/>
<polygon fill="#000000" stroke="#000000" points="1211.5,-709.6411 1213.9214,-719.9555 1218.4607,-710.3823 1211.5,-709.6411"/>
</g>
<!-- nm&#45;&gt;rb -->
<g id="edge100" class="edge">
<title>nm-&gt;rb</title>
<path fill="none" stroke="#000000" d="M1231.5963,-505.6621C1229.7935,-497.0088 1227.5352,-486.1691 1225.4917,-476.3602"/>
<polygon fill="#000000" stroke="#000000" points="1228.8563,-475.3492 1223.3903,-466.2733 1222.0034,-476.7769 1228.8563,-475.3492"/>
</g>
<!-- dd&#45;&gt;sp -->
<g id="edge102" class="edge">
<title>dd-&gt;sp</title>
<path fill="none" stroke="#000000" d="M320,-503.8314C320,-496.131 320,-486.9743 320,-478.4166"/>
<polygon fill="#000000" stroke="#000000" points="323.5001,-478.4132 320,-468.4133 316.5001,-478.4133 323.5001,-478.4132"/>
</g>
<!-- vq&#45;&gt;gr -->
<g id="edge103" class="edge">
<title>vq-&gt;gr</title>
<path fill="none" stroke="#000000" d="M629.6603,-362.3771C627.1443,-353.3195 623.9155,-341.6958 621.044,-331.3584"/>
<polygon fill="#000000" stroke="#000000" points="624.3801,-330.2908 618.3312,-321.5924 617.6354,-332.1644 624.3801,-330.2908"/>
</g>
<!-- cb&#45;&gt;xc -->
<g id="edge104" class="edge">
<title>cb-&gt;xc</title>
<path fill="none" stroke="#000000" d="M701.8525,-508.4574C696.612,-498.528 689.3686,-484.8037 683.2172,-473.1483"/>
<polygon fill="#000000" stroke="#000000" points="686.1376,-471.1832 678.3747,-463.973 679.9469,-474.4506 686.1376,-471.1832"/>
</g>
<!-- nv&#45;&gt;tf -->
<g id="edge105" class="edge">
<title>nv-&gt;tf</title>
<path fill="none" stroke="#000000" d="M822.3334,-721.1995C825.7657,-696.4871 832.2094,-650.0925 836.2935,-620.6868"/>
<polygon fill="#000000" stroke="#000000" points="839.7724,-621.0799 837.6815,-610.6934 832.839,-620.1169 839.7724,-621.0799"/>
</g>
<!-- nv&#45;&gt;nr -->
<g id="edge106" class="edge">
<title>nv-&gt;nr</title>
<path fill="none" stroke="#000000" d="M805.9741,-728.2898C791.8384,-718.5035 769.4706,-703.0181 750.5743,-689.9361"/>
<polygon fill="#000000" stroke="#000000" points="752.3927,-686.9381 742.1785,-684.1236 748.4082,-692.6934 752.3927,-686.9381"/>
</g>
<!-- xl&#45;&gt;jd -->
<g id="edge107" class="edge">
<title>xl-&gt;jd</title>
<path fill="none" stroke="#000000" d="M1214.073,-363.7751C1210.0051,-354.0123 1204.5114,-340.8272 1199.7991,-329.5179"/>
<polygon fill="#000000" stroke="#000000" points="1202.9917,-328.0799 1195.9147,-320.1953 1196.5302,-330.7723 1202.9917,-328.0799"/>
</g>
<!-- hx&#45;&gt;zg -->
<g id="edge109" class="edge">
<title>hx-&gt;zg</title>
<path fill="none" stroke="#000000" d="M77,-215.8314C77,-208.131 77,-198.9743 77,-190.4166"/>
<polygon fill="#000000" stroke="#000000" points="80.5001,-190.4132 77,-180.4133 73.5001,-190.4133 80.5001,-190.4132"/>
</g>
<!-- hx&#45;&gt;gl -->
<g id="edge108" class="edge">
<title>hx-&gt;gl</title>
<path fill="none" stroke="#000000" d="M70.3842,-248.3684C59.2573,-273.888 38,-329.0478 38,-378 38,-810 38,-810 38,-810 38,-855.9758 53.3159,-871.01 89,-900 127.1867,-931.0232 183.5149,-944.3555 220.4788,-949.9956"/>
<polygon fill="#000000" stroke="#000000" points="220.433,-953.5235 230.823,-951.4506 221.408,-946.5918 220.433,-953.5235"/>
</g>
</g>
</svg>